<?xml version="1.0" encoding="utf-8"?>
<!-- Generator: Adobe Illustrator 26.0.3, SVG Export Plug-In . SVG Version: 6.00 Build 0)  -->
<svg version="1.1" id="Layer_1" xmlns="http://www.w3.org/2000/svg" xmlns:xlink="http://www.w3.org/1999/xlink" x="0px" y="0px"
	 viewBox="0 0 518.7 207.5" style="enable-background:new 0 0 518.7 207.5;" xml:space="preserve">
<style type="text/css">
	.st0{fill:#3B4A88;}
	.st1{fill:#006FB2;}
	.st2{fill:#00A5E3;}
	.st3{fill:#E95166;}
</style>
<g>
	<g>
		<path class="st0" d="M57.9,26.2H37.2v60.1h-9.2V26.2H7.4v-8.6h50.6V26.2z"/>
		<path class="st0" d="M116.7,78v8.3H114c-7.1,0-11.2-3.5-11.8-9.9c-4.2,6.8-11.2,11.1-19.8,11.1c-14.5,0-25.4-11.5-25.4-26.6
			c0-15.1,10.9-26.6,25.4-26.6c8.5,0,15.5,4.2,19.7,10.9v-9.7h8.6V73c0,3.1,2,5.1,5.1,5.1H116.7z M102,60.9
			c0-10.5-7.8-18.3-18.1-18.3c-10.5,0-18.2,7.9-18.2,18.3c0,10.5,7.8,18.3,18.2,18.3C94.3,79.2,102,71.4,102,60.9z"/>
		<path class="st0" d="M169.6,69.7H136l-6.7,16.6h-9.8l28-68.7h10.9l28,68.7h-10.1L169.6,69.7z M166.2,61.2l-13.4-33.8l-13.4,33.8
			H166.2z"/>
		<path class="st0" d="M248.5,60.9c0,15.1-11,26.6-25.5,26.6c-8.5,0-15.5-4.2-19.7-10.9v28.6h-8.6V35.5h8.6v9.7
			c4.2-6.7,11.3-10.9,19.7-10.9C237.5,34.3,248.5,45.8,248.5,60.9z M239.6,60.9c0-10.5-7.8-18.3-18.2-18.3
			c-10.4,0-18.1,7.9-18.1,18.3c0,10.5,7.8,18.3,18.1,18.3C231.8,79.2,239.6,71.4,239.6,60.9z"/>
		<path class="st0" d="M57,174.8v8.6H12.5v-68.7h44v8.6H21.7v21.3h31.6v8.6H21.7v21.7H57z"/>
		<path class="st0" d="M127.2,158c0-15.1,11.6-26.6,27.1-26.6c12.8,0,23.1,8.1,26,19.6h-9.1c-2.7-6.8-9.1-11.3-16.9-11.3
			c-10.5,0-18.2,7.9-18.2,18.3c0,10.5,7.8,18.3,18.2,18.3c7.9,0,14.2-4.6,16.9-11.3h9.1c-2.9,11.5-13.1,19.6-26,19.6
			C138.8,184.6,127.2,173.1,127.2,158z"/>
		<path class="st0" d="M247.9,175.1v8.3h-2.6c-7.7,0-11.9-4.1-11.9-11.5v-17.1c0-9.1-5.8-15-14.8-15c-9.4,0-15.5,6.1-15.5,15.2v28.5
			h-8.6v-71.7h8.6v29.4c3.9-6.2,10.4-9.7,18.3-9.7c12.3,0,20.6,8.2,20.6,20.6v18c0,3.1,2,5.1,5.1,5.1H247.9z"/>
		<path class="st0" d="M315.9,175.1v8.3h-2.7c-7.1,0-11.3-3.5-11.8-9.9c-4.2,6.8-11.2,11.1-19.8,11.1c-14.5,0-25.4-11.5-25.4-26.6
			c0-15.1,10.9-26.6,25.4-26.6c8.5,0,15.5,4.2,19.7,10.9v-9.7h8.6V170c0,3.1,2,5.1,5.1,5.1H315.9z M301.3,158
			c0-10.5-7.8-18.3-18.1-18.3c-10.5,0-18.2,7.9-18.2,18.3c0,10.5,7.8,18.3,18.2,18.3C293.5,176.3,301.3,168.4,301.3,158z"/>
		<path class="st0" d="M381.3,175.1v8.3h-2.6c-7.7,0-11.9-4.1-11.9-11.5v-17.1c0-9.1-5.8-15-14.8-15c-9.4,0-15.5,6.1-15.5,15.2v28.5
			h-8.6v-50.8h8.6v8.2c3.9-6,10.4-9.4,18.3-9.4c12.3,0,20.6,8.2,20.6,20.6v18c0,3.1,2,5.1,5.1,5.1H381.3z"/>
		<path class="st0" d="M443.5,132.6v45.3c0,15.4-10.4,25.6-25.9,25.6c-12.2,0-21.2-6.2-24.7-16.2h8.9c2.8,5.2,8.6,8.4,15.8,8.4
			c10.5,0,17.3-7.1,17.3-17.8v-4.9c-4.2,6.6-11.3,10.7-19.8,10.7c-14.5,0-25.4-11.2-25.4-26.1c0-14.8,10.9-26.1,25.4-26.1
			c8.6,0,15.6,4.2,19.8,10.8v-9.6H443.5z M434.9,157.5c0-10.4-7.8-18.2-18.1-18.2c-10.5,0-18.2,7.9-18.2,18.2
			c0,10.5,7.8,18.3,18.2,18.3C427.1,175.8,434.9,167.9,434.9,157.5z"/>
		<path class="st0" d="M511.2,161.6h-44.6c1.5,9,8.6,15.1,18.2,15.1c7.1,0,13.2-3.4,16.1-8.5h9.6c-4,9.8-13.8,16.3-25.8,16.3
			c-15.6,0-27.3-11.5-27.3-26.6c0-15.1,11.6-26.6,27-26.6c15.4,0,27,11.5,27,26.6C511.4,159,511.3,160.6,511.2,161.6z M466.7,153.9
			h35.5c-1.6-8.7-8.8-14.6-17.8-14.6C475.3,139.3,468.3,145.2,466.7,153.9z"/>
		<g>
			<path class="st0" d="M120.8,183.8c-14.5,0-21-5.1-30.3-23.9c-8.9-17.9-11.6-19.3-22.7-19.3h-0.8V132h0.8c15.3,0,20.4,4,30.3,24.1
				c8.7,17.5,13.2,19.2,22.7,19.2h0.8v8.6H120.8z"/>
		</g>
		<g>
			<path class="st0" d="M66.9,183.8v-8.6h0.8c9.5,0,13.9-1.7,22.7-19.2c10-20,15.1-24.1,30.3-24.1h0.8v8.6h-0.8
				c-11.1,0-13.7,1.4-22.7,19.3c-9.4,18.8-15.9,23.9-30.3,23.9H66.9z"/>
		</g>
	</g>
	<g>
		<path class="st1" d="M391.7,49.7c0-1.8-1.5-3.4-3.4-3.4h-90.9c-1.8,0-3.4,1.5-3.4,3.4v4c0.1,0,0.1,0,0.2,0h28.3
			c0.3,0,0.6,0.3,0.6,0.6v4.1c0,0.3-0.3,0.6-0.6,0.6h-28.3c-0.1,0-0.1,0-0.2,0v4.1c0,0,0.1,0,0.2,0l10.3,0c0.3,0,0.4,0.2,0.3,0.5
			l-2.7,4.3c-0.2,0.3-0.5,0.5-0.9,0.5l-7,0c-0.1,0-0.1,0-0.2,0v4c0,1.8,1.5,3.4,3.4,3.4h90.9c1.8,0,3.4-1.5,3.4-3.4L391.7,49.7z"/>
		<path class="st2" d="M290.1,58.4c0,0.3-0.3,0.6-0.6,0.6l-23.9,0c-0.3,0-0.6-0.3-0.6-0.6v-4.1c0-0.3,0.3-0.6,0.6-0.6h23.9
			c0.3,0,0.6,0.3,0.6,0.6L290.1,58.4z"/>
		<path class="st2" d="M290.1,67.6c0,0.3-0.3,0.6-0.6,0.6l-9.8,0c-0.3,0-0.6-0.3-0.6-0.6l0-4.1c0-0.3,0.2-0.6,0.6-0.6l9.8,0
			c0.3,0,0.6,0.3,0.6,0.6L290.1,67.6z"/>
		<path class="st0" d="M358.6,75.4h21.7l0-29.1h-22.1l12.4,12.4c1.3,1.3,1.3,3.4,0,4.7L358.6,75.4z"/>
		<path class="st3" d="M343.8,21c-1.3,1.3-1.3,3.4,0,4.7l33,33c1.3,1.3,1.3,3.4,0,4.7L344,96.2c-1.3,1.3-1.3,3.4,0,4.7l15.8,15.8
			c1.3,1.3,3.4,1.3,4.7,0l53.5-53.5c1.3-1.3,1.3-3.4,0-4.7L364.5,5c-1.3-1.3-3.4-1.3-4.7,0L343.8,21z"/>
	</g>
</g>
</svg>
