<?xml version="1.0" encoding="utf-8"?>
<!-- Generator: Adobe Illustrator 26.0.3, SVG Export Plug-In . SVG Version: 6.00 Build 0)  -->
<svg version="1.1" id="Layer_1" xmlns="http://www.w3.org/2000/svg" xmlns:xlink="http://www.w3.org/1999/xlink" x="0px" y="0px"
	 viewBox="0 0 531 530" style="enable-background:new 0 0 531 530;" xml:space="preserve">
<style type="text/css">
	.st0{fill:#006FB2;}
	.st1{fill:#00A5E3;}
	.st2{fill:#3B4A88;}
	.st3{fill:#E95166;}
</style>
<g>
	<path class="st0" d="M434.7,226.8c0-6.3-5.1-11.4-11.4-11.4h-310c-6.3,0-11.4,5.1-11.4,11.4v13.6c0.2-0.1,0.3-0.1,0.5-0.1h96.3
		c1.1,0,1.9,0.9,1.9,1.9v14.1c0,1-0.9,1.9-1.9,1.9h-96.3c-0.2,0-0.4-0.1-0.5-0.1v13.8c0.2,0,0.3-0.1,0.5-0.1l35.1,0
		c1.1,0,1.5,0.7,0.9,1.6l-9.1,14.7c-0.5,0.9-1.9,1.6-2.9,1.6l-24,0c-0.2,0-0.4-0.1-0.5-0.1v13.5c0,6.3,5.2,11.4,11.4,11.4h310.1
		c6.3,0,11.4-5.1,11.4-11.4L434.7,226.8z"/>
	<path class="st1" d="M88.3,256.3c0,1-0.9,1.9-1.9,1.9l-81.5,0c-1.1,0-1.9-0.9-1.9-1.9v-14.1c0-1,0.9-1.9,1.9-1.9h81.5
		c1.1,0,1.9,0.9,1.9,1.9L88.3,256.3z"/>
	<path class="st1" d="M88.3,287.8c0,1.1-0.9,1.9-1.9,1.9l-33.3,0c-1,0-1.9-0.9-1.9-1.9l0-14.1c0-1.1,0.8-1.9,1.9-1.9l33.3,0
		c1.1,0,1.9,0.9,1.9,1.9L88.3,287.8z"/>
	<path class="st2" d="M322,314.6h73.9l0-99.2h-75.5l42.3,42.3c4.4,4.4,4.4,11.7,0,16.2L322,314.6z"/>
	<path class="st3" d="M271.4,129c-4.4,4.4-4.4,11.7,0,16.2l112.4,112.4c4.4,4.4,4.4,11.7,0,16.2L272,385.5c-4.4,4.4-4.4,11.7,0,16.2
		l54,54c4.4,4.4,11.7,4.4,16.2,0l182.5-182.5c4.4-4.4,4.4-11.7,0-16.2L342.1,74.4c-4.4-4.4-11.7-4.4-16.2,0L271.4,129z"/>
</g>
</svg>
